<svg id="visual" viewBox="0 0 900 675" width="900" height="675" xmlns="http://www.w3.org/2000/svg" xmlns:xlink="http://www.w3.org/1999/xlink" version="1.1"><rect x="0" y="0" width="900" height="675" fill="#001122"></rect><path d="M0 460L21.5 459.8C43 459.7 86 459.3 128.8 460C171.7 460.7 214.3 462.3 257.2 465.2C300 468 343 472 385.8 476.2C428.7 480.3 471.3 484.7 514.2 488C557 491.3 600 493.7 642.8 493.5C685.7 493.3 728.3 490.7 771.2 491.2C814 491.7 857 495.3 878.5 497.2L900 499L900 676L878.5 676C857 676 814 676 771.2 676C728.3 676 685.7 676 642.8 676C600 676 557 676 514.2 676C471.3 676 428.7 676 385.8 676C343 676 300 676 257.2 676C214.3 676 171.7 676 128.8 676C86 676 43 676 21.5 676L0 676Z" fill="#fa7268"></path><path d="M0 564L21.5 560.8C43 557.7 86 551.3 128.8 546.2C171.7 541 214.3 537 257.2 529.2C300 521.3 343 509.7 385.8 508.7C428.7 507.7 471.3 517.3 514.2 520C557 522.7 600 518.3 642.8 516.8C685.7 515.3 728.3 516.7 771.2 514C814 511.3 857 504.7 878.5 501.3L900 498L900 676L878.5 676C857 676 814 676 771.2 676C728.3 676 685.7 676 642.8 676C600 676 557 676 514.2 676C471.3 676 428.7 676 385.8 676C343 676 300 676 257.2 676C214.3 676 171.7 676 128.8 676C86 676 43 676 21.5 676L0 676Z" fill="#ef5f67"></path><path d="M0 565L21.5 561.5C43 558 86 551 128.8 553.3C171.7 555.7 214.3 567.3 257.2 565C300 562.7 343 546.3 385.8 544.2C428.7 542 471.3 554 514.2 561.5C557 569 600 572 642.8 574.7C685.7 577.3 728.3 579.7 771.2 580.3C814 581 857 580 878.5 579.5L900 579L900 676L878.5 676C857 676 814 676 771.2 676C728.3 676 685.7 676 642.8 676C600 676 557 676 514.2 676C471.3 676 428.7 676 385.8 676C343 676 300 676 257.2 676C214.3 676 171.7 676 128.8 676C86 676 43 676 21.5 676L0 676Z" fill="#e34c67"></path><path d="M0 600L21.5 601C43 602 86 604 128.8 601.7C171.7 599.3 214.3 592.7 257.2 594.3C300 596 343 606 385.8 612.2C428.7 618.3 471.3 620.7 514.2 620.8C557 621 600 619 642.8 610.2C685.7 601.3 728.3 585.7 771.2 585.7C814 585.7 857 601.3 878.5 609.2L900 617L900 676L878.5 676C857 676 814 676 771.2 676C728.3 676 685.7 676 642.8 676C600 676 557 676 514.2 676C471.3 676 428.7 676 385.8 676C343 676 300 676 257.2 676C214.3 676 171.7 676 128.8 676C86 676 43 676 21.5 676L0 676Z" fill="#d53867"></path><path d="M0 630L21.5 628.2C43 626.3 86 622.7 128.8 623.2C171.7 623.7 214.3 628.3 257.2 632C300 635.7 343 638.3 385.8 634.3C428.7 630.3 471.3 619.7 514.2 616.5C557 613.3 600 617.7 642.8 621.3C685.7 625 728.3 628 771.2 625.5C814 623 857 615 878.5 611L900 607L900 676L878.5 676C857 676 814 676 771.2 676C728.3 676 685.7 676 642.8 676C600 676 557 676 514.2 676C471.3 676 428.7 676 385.8 676C343 676 300 676 257.2 676C214.3 676 171.7 676 128.8 676C86 676 43 676 21.5 676L0 676Z" fill="#c62368"></path></svg>